Coordinates
version=1
nRows=19
nColumns=24
inDegrees=yes

Units are S.I. units (second, meters, Newtons, ...)
Angles are in degrees.

endheader
time	torso_tilt	torso_list	torso_rotation	torso_tx	torso_ty	torso_tz	lumbar_extension	lumbar_bending	lumbar_rotation	hip_flexion_r	hip_adduction_r	hip_rotation_r	knee_angle_r	ankle_angle_r	subtalar_angle_r	mtp_angle_r	hip_flexion_l	hip_adduction_l	hip_rotation_l	knee_angle_l	ankle_angle_l	subtalar_angle_l	mtp_angle_l
      0.00000000	    -15.39446826	     -0.73962293	     -1.45543709	      0.05894064	      1.21241025	      0.04107156	     15.86984369	      0.58820158	      7.47043925	     13.06660531	     -0.50139124	     -9.15718186	    -91.30199629	      7.10266536	    -10.25509406	      0.00000000	      5.43595852	      1.18726492	     -2.38597530	    -37.59991101	     28.84193310	      6.55473142	      0.00000000
      0.01000000	    -15.30380790	     -0.29541180	     -2.85287364	      0.05938210	      1.22097169	      0.04242794	     15.15270728	     -0.01571160	      8.35213460	     14.98613497	      0.17787441	     -8.83669951	    -87.74567462	      8.56486792	     -9.90181862	      0.00000000	      3.40491295	      0.45437375	     -2.75303170	    -34.85859025	     25.44686170	      6.35130069	      0.00000000
      0.02000000	    -15.18145526	      0.15889605	     -4.18037053	      0.05991867	      1.23010559	      0.04383548	     14.64993388	     -0.64655852	      9.17421104	     16.37622274	      0.87136058	     -8.57220881	    -83.54969861	      9.76967483	     -9.56520043	      0.00000000	      1.14770078	     -0.26187068	     -3.28872272	    -31.99474005	     21.59405359	      6.28929764	      0.00000000
      0.03000000	    -15.06665794	      0.61914053	     -5.41722013	      0.06056246	      1.23925759	      0.04544572	     14.21815971	     -1.25019906	     10.04548949	     17.48092556	      1.44468541	     -8.62119848	    -78.96286746	     10.82687172	     -9.58515329	      0.00000000	     -0.97473330	     -0.86464906	     -3.77623754	    -29.30574066	     17.20764646	      6.06320567	      0.00000000
      0.04000000	    -14.95946493	      1.00252658	     -6.56735594	      0.06117383	      1.24808481	      0.04716589	     13.93850695	     -1.69326912	     10.87397051	     18.20802688	      1.96280364	     -8.67748311	    -73.95238681	     11.39790990	     -9.61249706	      0.00000000	     -3.02971088	     -1.38940900	     -4.34177159	    -26.90435800	     12.55369608	      6.20787585	      0.00000000
      0.05000000	    -14.87912177	      1.35171414	     -7.50604239	      0.06182654	      1.25672387	      0.04880282	     13.71118561	     -2.06676193	     11.52910916	     18.69208234	      2.38414249	     -8.70134793	    -68.58125568	     11.89783771	     -9.21300905	      0.00000000	     -4.87582158	     -1.79854113	     -4.94192203	    -24.79880600	      7.48167636	      6.30108706	      0.00000000
      0.06000000	    -14.69363057	      1.62371710	     -8.35526069	      0.06272912	      1.26494883	      0.05048176	     13.33419388	     -2.31704006	     12.07227478	     18.96836352	      2.75042109	     -8.62083473	    -62.86791655	     12.34319597	     -8.62332268	      0.00000000	     -6.56018292	     -2.11457371	     -5.55445880	    -22.87962780	      2.29660512	      6.24333901	      0.00000000
      0.07000000	    -14.51131404	      1.86067407	     -9.14895097	      0.06364568	      1.27251716	      0.05213207	     12.75412951	     -2.38631415	     12.50452448	     19.34679372	      2.88854637	     -8.49169999	    -57.03533416	     12.68512662	     -7.96441671	      0.00000000	     -7.77100733	     -2.15189503	     -5.98216215	    -21.45120249	     -2.58779249	      6.01375946	      0.00000000
      0.08000000	    -14.35365986	      2.04545844	     -9.72789227	      0.06453946	      1.27936496	      0.05370673	     11.91065283	     -2.29249600	     12.74506747	     19.93370289	      2.76818546	     -8.36432433	    -51.23857073	     12.88962624	     -7.19357040	      0.00000000	     -8.37663584	     -1.89975436	     -5.96419439	    -20.61342554	     -6.89263668	      5.42871892	      0.00000000
      0.09000000	    -14.11642705	      2.16587281	    -10.25194215	      0.06545014	      1.28554048	      0.05531111	     10.80455968	     -2.00192241	     12.85964518	     20.58648242	      2.44830811	     -8.05058268	    -45.51130253	     13.00436141	     -6.10310981	      0.00000000	     -8.61909071	     -1.40205910	     -5.87032625	    -20.30644416	    -10.27658960	      4.87747307	      0.00000000
      0.10000000	    -13.87667563	      2.23191503	    -10.68935090	      0.06618280	      1.29052970	      0.05694833	      9.56261787	     -1.50519493	     12.84101186	     21.32413150	      1.93618144	     -7.64471657	    -39.93369695	     13.08840342	     -4.83461771	      0.00000000	     -8.46554031	     -0.65163293	     -5.71173145	    -20.69838705	    -13.17951574	      3.89094084	      0.00000000
      0.11000000	    -13.63766054	      2.26330161	    -11.03536625	      0.06670508	      1.29424454	      0.05858881	      8.30343964	     -0.90144738	     12.71205630	     22.02905683	      1.35156800	     -7.11997964	    -34.60176491	     13.24758306	     -3.33486393	      0.00000000	     -8.00886418	      0.21846741	     -5.64679160	    -21.75735730	    -16.11482855	      2.34942348	      0.00000000
      0.12000000	    -13.41640446	      2.24796104	    -11.27710471	      0.06707090	      1.29692841	      0.06023370	      7.10853978	     -0.28960917	     12.56644796	     22.58759017	      0.78254626	     -6.52084723	    -29.36523425	     13.48995616	     -1.48314164	      0.00000000	     -7.26922079	      1.00817255	     -5.66836781	    -23.62158531	    -18.89369899	      1.12000867	      0.00000000
      0.13000000	    -13.21106434	      2.27565598	    -11.45927931	      0.06726820	      1.29824732	      0.06168751	      6.25486346	      0.23354522	     12.24567859	     22.75436997	      0.35317093	     -5.74818606	    -24.34104601	     13.86337529	      0.24023008	      0.00000000	     -6.72145395	      1.70405492	     -5.78381700	    -25.97028310	    -21.49256962	      0.04872747	      0.00000000
      0.14000000	    -13.11053579	      2.28763095	    -11.51584481	      0.06719549	      1.29828909	      0.06310567	      5.77735948	      0.72249090	     11.86053524	     22.63571735	      0.03837384	     -4.86893416	    -19.71513798	     14.13175048	      1.36541873	      0.00000000	     -6.15423180	      2.23459195	     -5.75569660	    -29.05128340	    -22.62138587	     -0.24600275	      0.00000000
      0.15000000	    -13.02845075	      2.29006458	    -11.44625791	      0.06699276	      1.29732642	      0.06456792	      5.37651098	      1.15416428	     11.44584464	     22.48332548	     -0.23191018	     -3.56048861	    -15.67721852	     14.67357348	      1.49903103	      0.00000000	     -5.44398612	      2.68100345	     -5.35640811	    -32.52855119	    -22.32512441	      0.58956158	      0.00000000
      0.16000000	    -12.94948404	      2.34580532	    -11.24596502	      0.06682634	      1.29550461	      0.06603169	      5.18882442	      1.46260997	     10.90273267	     22.16658088	     -0.43163500	     -2.15939762	    -12.36199186	     14.87890904	      1.23546279	      0.00000000	     -4.87025622	      3.04495218	     -4.84231252	    -36.14987739	    -21.03227755	      2.17214795	      0.00000000
      0.17000000	    -12.92255900	      2.43086665	    -10.89711235	      0.06653318	      1.29245406	      0.06745670	      5.33866939	      1.64933056	     10.24475953	     21.70138523	     -0.51127865	     -0.93307669	     -9.99063815	     15.03849783	      0.40263966	      0.00000000	     -4.46704463	      3.26761355	     -4.37751588	    -39.90333772	    -19.64815836	      3.60934245	      0.00000000
      0.18000000	    -12.91113540	      2.53320988	    -10.52921997	      0.06612098	      1.28825517	      0.06881641	      5.78649331	      1.72143629	      9.66588546	     21.11774321	     -0.48682463	     -0.14005216	     -8.74291134	     15.50020896	     -0.40917619	      0.00000000	     -4.26081243	      3.32824774	     -3.88306781	    -43.75196656	    -18.44874377	      4.87997866	      0.00000000
